<svg xmlns="http://www.w3.org/2000/svg" viewBox="0 0 64 64">
  <rect width="64" height="64" rx="18" fill="#0f8b6f" />
  <path
    d="M20 50l2.8-9A17 17 0 1 1 32 49a16.8 16.8 0 0 1-8.3-2.2z"
    fill="#fff6ee"
  />
  <path
    d="M27.9 23.3c-.4-1-.8-1-1.2-1h-1c-.4 0-1 .2-1.4.6-1 .9-2.5 2.5-2.5 6.1 0 3.5 2.6 6.9 3 7.4.4.5 5 8 12.4 10.9 6.1 2.4 7.4 1.9 8.7 1.8 1.4-.1 4.3-1.7 4.9-3.4.6-1.7.6-3.1.4-3.4-.2-.3-.8-.5-1.7-.9-.9-.4-5.1-2.5-5.9-2.8-.8-.3-1.4-.4-2 .4-.6.9-2.2 2.8-2.7 3.3-.5.6-1 .7-1.9.3-.9-.4-3.7-1.4-7-4.5-2.6-2.3-4.3-5.2-4.8-6.1-.5-.9-.1-1.3.3-1.8.4-.4.9-1 .1.2 1.3-1.5 1.8-2.1 2.1-2.7.3-.6.1-1.2-.1-1.7-.2-.4-1.9-4.8-2.5-6.1z"
    fill="#0f8b6f"
  />
</svg>
